<svg width="29" height="29" viewBox="0 0 29 29" fill="none" xmlns="http://www.w3.org/2000/svg">
<path d="M1.5 1.5H27.3348V27.3348H1.5V1.5Z" fill="#F8F26B"/>
<path d="M3 20.876V25.835H7.95898V28.835H0V20.876H3ZM28.835 20.876V28.835H20.876V25.835H25.835V20.876H28.835ZM7.95898 0V3H3V7.95898H0V0H7.95898ZM28.835 0V7.95898H25.835V3H20.876V0H28.835Z" fill="black"/>
<path d="M6.54095 21.3572H8.19578V7.97677H6.54095V6.4165H14.2477C15.3825 6.4165 16.4305 6.60563 17.3919 6.98387C18.369 7.34636 19.2122 7.88221 19.9214 8.59142C20.6306 9.28487 21.1822 10.1438 21.5762 11.1682C21.986 12.1926 22.1909 13.3589 22.1909 14.667C22.1909 15.9751 21.986 17.1414 21.5762 18.1658C21.1822 19.1902 20.6306 20.057 19.9214 20.7662C19.2122 21.4597 18.369 21.9955 17.3919 22.3738C16.4305 22.7363 15.3825 22.9175 14.2477 22.9175H6.54095V21.3572ZM12.0255 21.2154H13.5622C14.3502 21.2154 15.02 21.1366 15.5716 20.979C16.139 20.8214 16.596 20.5771 16.9427 20.2461C17.3052 19.8994 17.5653 19.4502 17.7229 18.8986C17.8962 18.3313 17.9829 17.6457 17.9829 16.8419V12.4921C17.9829 11.6883 17.8962 11.0106 17.7229 10.459C17.5653 9.89164 17.3052 9.44247 16.9427 9.11151C16.596 8.76478 16.139 8.51262 15.5716 8.35501C15.02 8.19741 14.3502 8.11861 13.5622 8.11861H12.0255V21.2154Z" fill="black"/>
</svg>
