<svg width="134" height="32" viewBox="0 0 134 32" fill="none" xmlns="http://www.w3.org/2000/svg">
<path d="M1.5 1.77002H27.3348V27.6049H1.5V1.77002Z" fill="#F8F26B"/>
<path d="M3 21.146V26.105H7.95898V29.105H0V21.146H3ZM28.835 21.146V29.105H20.876V26.105H25.835V21.146H28.835ZM7.95898 0.27002V3.27002H3V8.229H0V0.27002H7.95898ZM28.835 0.27002V8.229H25.835V3.27002H20.876V0.27002H28.835Z" fill="black"/>
<path d="M6.54095 21.6272H8.19578V8.24679H6.54095V6.68652H14.2477C15.3825 6.68652 16.4305 6.87565 17.3919 7.25389C18.369 7.61638 19.2122 8.15223 19.9214 8.86144C20.6306 9.55489 21.1822 10.4138 21.5762 11.4382C21.986 12.4627 22.1909 13.6289 22.1909 14.937C22.1909 16.2451 21.986 17.4114 21.5762 18.4358C21.1822 19.4602 20.6306 20.327 19.9214 21.0362C19.2122 21.7297 18.369 22.2655 17.3919 22.6438C16.4305 23.0063 15.3825 23.1875 14.2477 23.1875H6.54095V21.6272ZM12.0255 21.4854H13.5622C14.3502 21.4854 15.02 21.4066 15.5716 21.249C16.139 21.0914 16.596 20.8471 16.9427 20.5162C17.3052 20.1694 17.5653 19.7203 17.7229 19.1686C17.8962 18.6013 17.9829 17.9157 17.9829 17.1119V12.7621C17.9829 11.9583 17.8962 11.2806 17.7229 10.729C17.5653 10.1617 17.3052 9.71249 16.9427 9.38153C16.596 9.0348 16.139 8.78264 15.5716 8.62503C15.02 8.46743 14.3502 8.38863 13.5622 8.38863H12.0255V21.4854Z" fill="black"/>
<path d="M44.5353 21.2977C43.51 21.2977 42.6748 21.124 42.0299 20.7767C41.4015 20.4295 40.9715 20.016 40.74 19.5365H40.616V21H38.3587V15.9148H40.616V17.0311C40.616 17.891 40.8971 18.5608 41.4594 19.0404C42.0382 19.5199 42.956 19.7597 44.2128 19.7597C45.5358 19.7597 46.4949 19.4869 47.0902 18.9411C47.6856 18.3954 47.9832 17.6678 47.9832 16.7582C47.9832 15.9479 47.76 15.3278 47.3135 14.8978C46.867 14.4513 46.1146 14.0958 45.0562 13.8312L43.7911 13.5335C42.9808 13.3516 42.2531 13.1118 41.6082 12.8141C40.9633 12.5165 40.4175 12.1527 39.971 11.7227C39.5245 11.2927 39.1772 10.7883 38.9292 10.2095C38.6977 9.63075 38.5819 8.95273 38.5819 8.17548C38.5819 7.46439 38.7142 6.81944 38.9788 6.24064C39.2434 5.64531 39.6155 5.14093 40.0951 4.7275C40.5912 4.29754 41.1865 3.96679 41.8811 3.73527C42.5756 3.50375 43.3611 3.388 44.2376 3.388C45.2298 3.388 46.0236 3.55337 46.6189 3.88411C47.2143 4.21485 47.6277 4.60347 47.8592 5.04997H47.9832V3.68566H50.2406V8.62199H47.9832V7.50573C47.9832 6.66234 47.6938 6.02566 47.1151 5.5957C46.5528 5.1492 45.6598 4.92595 44.436 4.92595C43.295 4.92595 42.4433 5.18227 41.8811 5.69492C41.3353 6.19103 41.0625 6.82771 41.0625 7.60495C41.0625 8.43181 41.3105 9.06849 41.8066 9.51499C42.3193 9.96149 43.1544 10.3253 44.312 10.6064L45.4779 10.8545C47.082 11.2348 48.3223 11.8385 49.1987 12.6653C50.0752 13.4756 50.5134 14.5919 50.5134 16.0141C50.5134 16.7748 50.3729 17.4776 50.0917 18.1225C49.8271 18.7675 49.4385 19.3298 48.9259 19.8093C48.4297 20.2724 47.8096 20.6362 47.0654 20.9008C46.3213 21.1654 45.4779 21.2977 44.5353 21.2977ZM59.083 21.2977C58.1073 21.2977 57.2391 21.1323 56.4784 20.8016C55.7342 20.4708 55.1058 20.0078 54.5932 19.4124C54.0805 18.8171 53.6919 18.106 53.4273 17.2792C53.1627 16.4523 53.0304 15.5428 53.0304 14.5505C53.0304 13.4922 53.1875 12.5495 53.5017 11.7227C53.8159 10.8793 54.2542 10.1682 54.8164 9.58941C55.3787 9.01061 56.0402 8.57237 56.8009 8.27471C57.5781 7.9605 58.4215 7.8034 59.3311 7.8034C60.7532 7.8034 61.8612 8.10107 62.655 8.6964C63.4653 9.29174 63.8705 10.0524 63.8705 10.9785C63.8705 11.5573 63.7134 12.0121 63.3992 12.3428C63.085 12.657 62.6633 12.8141 62.1341 12.8141C61.5884 12.8141 61.1749 12.6653 60.8938 12.3676C60.6127 12.0534 60.4721 11.6648 60.4721 11.2018C60.4721 10.8214 60.5713 10.4907 60.7698 10.2095C60.9682 9.92842 61.2245 9.7217 61.5388 9.58941V9.46538C61.3403 9.38269 61.0923 9.30827 60.7946 9.24213C60.4969 9.15944 60.1248 9.1181 59.6783 9.1181C59.1326 9.1181 58.6365 9.21732 58.19 9.41577C57.7435 9.61421 57.3631 9.89534 57.0489 10.2592C56.7347 10.6064 56.4867 11.0281 56.3048 11.5242C56.1394 12.0204 56.0567 12.5744 56.0567 13.1862V15.3443C56.0567 16.5846 56.3626 17.5686 56.9745 18.2962C57.5864 19.0073 58.4215 19.3628 59.4799 19.3628C60.4721 19.3628 61.2411 19.1478 61.7868 18.7179C62.3491 18.2879 62.779 17.7587 63.0767 17.1303L64.1433 17.7753C63.9945 18.2052 63.7795 18.6269 63.4984 19.0404C63.2173 19.4538 62.87 19.8341 62.4566 20.1814C62.0431 20.5122 61.5553 20.785 60.993 21C60.4308 21.1984 59.7941 21.2977 59.083 21.2977ZM69.811 21.2977C68.5212 21.2977 67.5455 20.9835 66.884 20.3551C66.239 19.7101 65.9166 18.8336 65.9166 17.7257C65.9166 16.4688 66.3631 15.518 67.2561 14.873C68.1491 14.2281 69.6043 13.9056 71.6219 13.9056H73.4079V12.2188C73.4079 11.21 73.1846 10.4411 72.7381 9.91188C72.2916 9.38269 71.5888 9.1181 70.6296 9.1181C69.8193 9.1181 69.2074 9.23386 68.794 9.46538V9.5646C68.9759 9.64729 69.1413 9.79612 69.2901 10.0111C69.4555 10.2095 69.5382 10.4907 69.5382 10.8545C69.5382 11.3175 69.3976 11.6896 69.1165 11.9707C68.8519 12.2519 68.4633 12.3924 67.9506 12.3924C67.5207 12.3924 67.1568 12.2519 66.8592 11.9707C66.578 11.6731 66.4375 11.2762 66.4375 10.7801C66.4375 10.3997 66.545 10.0359 66.76 9.68863C66.9915 9.32481 67.3222 9.00234 67.7522 8.72121C68.1821 8.44008 68.7031 8.21683 69.3149 8.05146C69.9433 7.88609 70.6627 7.8034 71.473 7.8034C73.0275 7.8034 74.2016 8.16722 74.9954 8.89485C75.7892 9.62248 76.1861 10.6395 76.1861 11.9459V19.6853H77.8729V20.8016C77.6414 20.9339 77.3437 21.0496 76.9799 21.1488C76.6161 21.2481 76.2274 21.2977 75.814 21.2977C75.0533 21.2977 74.491 21.1075 74.1272 20.7271C73.7799 20.3302 73.6063 19.8259 73.6063 19.214V19.09H73.4823C73.3665 19.3711 73.2177 19.644 73.0358 19.9086C72.8539 20.1566 72.6141 20.3881 72.3164 20.6031C72.0353 20.8181 71.688 20.9835 71.2746 21.0992C70.8612 21.2315 70.3733 21.2977 69.811 21.2977ZM70.9025 19.5613C71.6301 19.5613 72.2255 19.3876 72.6885 19.0404C73.1681 18.6931 73.4079 18.1225 73.4079 17.3288V15.1211H71.9195C70.7454 15.1211 69.9268 15.3112 69.4638 15.6916C69.0007 16.0719 68.7692 16.6177 68.7692 17.3288V17.8001C68.7692 18.3954 68.9594 18.8419 69.3397 19.1396C69.7201 19.4207 70.241 19.5613 70.9025 19.5613ZM79.5796 19.6605H81.2664V9.53979H79.5796V8.10107H81.2664V6.53831C81.2664 5.87683 81.3739 5.27322 81.5889 4.7275C81.8039 4.18178 82.1098 3.71874 82.5067 3.33838C82.9201 2.95803 83.408 2.66863 83.9702 2.47019C84.549 2.2552 85.194 2.14771 85.9051 2.14771C86.8973 2.14771 87.658 2.35443 88.1872 2.76785C88.7329 3.18128 89.0058 3.71047 89.0058 4.35542C89.0058 4.83499 88.8652 5.21534 88.5841 5.49648C88.3195 5.77761 87.9722 5.91817 87.5422 5.91817C87.0957 5.91817 86.7485 5.79414 86.5004 5.54609C86.2523 5.28149 86.1283 4.95902 86.1283 4.57867C86.1283 4.281 86.1945 4.04121 86.3268 3.8593C86.4591 3.66086 86.6162 3.52029 86.7981 3.43761V3.36319C86.5996 3.31358 86.3433 3.28877 86.0291 3.28877C84.7061 3.28877 84.0446 4.22312 84.0446 6.09181V8.10107H86.7236V9.53979H84.0446V19.6605H86.2275V21H79.5796V19.6605ZM88.5184 19.6605H90.2052V9.53979H88.5184V8.10107H90.2052V6.53831C90.2052 5.87683 90.3126 5.27322 90.5276 4.7275C90.7426 4.18178 91.0485 3.71874 91.4454 3.33838C91.8589 2.95803 92.3467 2.66863 92.909 2.47019C93.4878 2.2552 94.1327 2.14771 94.8438 2.14771C95.836 2.14771 96.5967 2.35443 97.1259 2.76785C97.6717 3.18128 97.9445 3.71047 97.9445 4.35542C97.9445 4.83499 97.804 5.21534 97.5228 5.49648C97.2582 5.77761 96.9109 5.91817 96.481 5.91817C96.0345 5.91817 95.6872 5.79414 95.4391 5.54609C95.1911 5.28149 95.0671 4.95902 95.0671 4.57867C95.0671 4.281 95.1332 4.04121 95.2655 3.8593C95.3978 3.66086 95.5549 3.52029 95.7368 3.43761V3.36319C95.5384 3.31358 95.282 3.28877 94.9678 3.28877C93.6449 3.28877 92.9834 4.22312 92.9834 6.09181V8.10107H95.6624V9.53979H92.9834V19.6605H95.1663V21H88.5184V19.6605ZM103.171 19.8341C104.213 19.8341 104.974 19.5117 105.453 18.8667C105.949 18.2218 106.197 17.3618 106.197 16.2869V12.8141C106.197 11.7392 105.949 10.8793 105.453 10.2344C104.974 9.58941 104.213 9.26693 103.171 9.26693C102.129 9.26693 101.36 9.58941 100.864 10.2344C100.385 10.8793 100.145 11.7392 100.145 12.8141V16.2869C100.145 17.3618 100.385 18.2218 100.864 18.8667C101.36 19.5117 102.129 19.8341 103.171 19.8341ZM103.171 21.2977C102.262 21.2977 101.435 21.1406 100.691 20.8264C99.9464 20.5122 99.3097 20.0657 98.7805 19.4869C98.2514 18.9081 97.8379 18.2052 97.5403 17.3784C97.2591 16.535 97.1186 15.5924 97.1186 14.5505C97.1186 13.5087 97.2591 12.5744 97.5403 11.7475C97.8379 10.9041 98.2514 10.193 98.7805 9.61421C99.3097 9.03541 99.9464 8.58891 100.691 8.27471C101.435 7.9605 102.262 7.8034 103.171 7.8034C104.081 7.8034 104.908 7.9605 105.652 8.27471C106.396 8.58891 107.033 9.03541 107.562 9.61421C108.091 10.193 108.496 10.9041 108.777 11.7475C109.075 12.5744 109.224 13.5087 109.224 14.5505C109.224 15.5924 109.075 16.535 108.777 17.3784C108.496 18.2052 108.091 18.9081 107.562 19.4869C107.033 20.0657 106.396 20.5122 105.652 20.8264C104.908 21.1406 104.081 21.2977 103.171 21.2977ZM111.041 19.6605H112.728V4.42983L111.041 4.10736V3.01591L115.506 2.14771V19.6605H117.193V21H111.041V19.6605ZM124.326 21.2977C123.533 21.2977 122.813 21.1488 122.168 20.8512C121.523 20.537 120.978 20.0905 120.531 19.5117C120.085 18.9329 119.737 18.23 119.489 17.4032C119.241 16.5598 119.117 15.6089 119.117 14.5505C119.117 13.4922 119.241 12.5495 119.489 11.7227C119.737 10.8793 120.085 10.1682 120.531 9.58941C120.978 9.01061 121.523 8.57237 122.168 8.27471C122.813 7.9605 123.533 7.8034 124.326 7.8034C125.302 7.8034 126.079 8.02665 126.658 8.47315C127.253 8.91965 127.683 9.44057 127.948 10.0359H128.072V4.42983L126.385 4.10736V3.01591L130.85 2.14771V19.0155L132.537 19.338V20.4295L128.072 21.2977V19.0652H127.948C127.683 19.6605 127.253 20.1814 126.658 20.6279C126.063 21.0744 125.285 21.2977 124.326 21.2977ZM125.194 19.5117C125.558 19.5117 125.914 19.4621 126.261 19.3628C126.608 19.2471 126.914 19.0817 127.179 18.8667C127.46 18.6517 127.675 18.3954 127.824 18.0977C127.989 17.8001 128.072 17.4611 128.072 17.0807V12.0204C128.072 11.64 127.989 11.301 127.824 11.0033C127.675 10.7057 127.46 10.4493 127.179 10.2344C126.914 10.0194 126.608 9.86227 126.261 9.76305C125.914 9.64729 125.558 9.58941 125.194 9.58941C124.252 9.58941 123.499 9.91188 122.937 10.5568C122.375 11.2018 122.094 12.0948 122.094 13.2358V15.8652C122.094 17.0063 122.375 17.8993 122.937 18.5442C123.499 19.1892 124.252 19.5117 125.194 19.5117Z" fill="black"/>
<path d="M85.3533 30.1015C84.991 30.1015 84.6849 30.014 84.435 29.8391C84.1914 29.6642 84.0259 29.4612 83.9384 29.2301H83.8916L83.2357 29.989H82.5798V23.9267L82.0176 23.8049V23.2708L84.004 22.8679V25.81H84.0602C84.1477 25.5914 84.3007 25.3978 84.5194 25.2291C84.738 25.0542 85.016 24.9667 85.3533 24.9667C85.6531 24.9667 85.9217 25.0292 86.1591 25.1541C86.4027 25.2728 86.6088 25.4446 86.7775 25.6695C86.9462 25.8944 87.0742 26.1661 87.1617 26.4847C87.2554 26.797 87.3022 27.1468 87.3022 27.5341C87.3022 27.9214 87.2554 28.2743 87.1617 28.5929C87.0742 28.9052 86.9462 29.1738 86.7775 29.3987C86.6088 29.6236 86.4027 29.7985 86.1591 29.9234C85.9217 30.0421 85.6531 30.1015 85.3533 30.1015ZM84.8754 29.2394C85.1378 29.2394 85.3564 29.1488 85.5313 28.9677C85.7062 28.7865 85.7937 28.5211 85.7937 28.1713V26.8876C85.7937 26.5378 85.7062 26.2723 85.5313 26.0911C85.3564 25.91 85.1378 25.8194 84.8754 25.8194C84.6256 25.8194 84.4163 25.8975 84.2476 26.0537C84.0852 26.2098 84.004 26.4191 84.004 26.6814V28.3774C84.004 28.6397 84.0852 28.849 84.2476 29.0052C84.4163 29.1613 84.6256 29.2394 84.8754 29.2394ZM88.757 31.9754C88.3822 31.9754 88.0917 31.8817 87.8856 31.6943C87.6794 31.5132 87.5764 31.2946 87.5764 31.0384C87.5764 30.8136 87.6388 30.6387 87.7638 30.5137C87.8949 30.3888 88.073 30.3263 88.2978 30.3263C88.5165 30.3263 88.6851 30.395 88.8038 30.5325C88.9225 30.6699 88.9819 30.8292 88.9819 31.0103C88.9819 31.0915 88.9694 31.1665 88.9444 31.2352C88.9194 31.3102 88.8913 31.3695 88.86 31.4132L88.8788 31.4695C88.9038 31.4757 88.9381 31.4788 88.9819 31.4788C89.1443 31.4788 89.2942 31.3914 89.4316 31.2165C89.569 31.0416 89.7002 30.7917 89.8251 30.4669L89.9188 30.2233L88.1386 25.6976H87.6888V25.0792H90.1531V25.6976H89.6284L90.6122 28.5367H90.6684L91.6616 25.6976H91.1369V25.0792H92.861V25.6976H92.4206L90.4529 30.495C90.3842 30.6636 90.303 30.8354 90.2093 31.0103C90.1156 31.1915 90.0032 31.3508 89.872 31.4882C89.7408 31.6319 89.5846 31.7474 89.4035 31.8349C89.2223 31.9286 89.0068 31.9754 88.757 31.9754ZM95.5006 29.3706H96.1565V24.0672H95.5006V23.4488H98.5552C99.0049 23.4488 99.4203 23.5238 99.8014 23.6737C100.189 23.8174 100.523 24.0298 100.804 24.3109C101.085 24.5857 101.304 24.9261 101.46 25.3322C101.622 25.7382 101.703 26.2004 101.703 26.7189C101.703 27.2374 101.622 27.6996 101.46 28.1057C101.304 28.5117 101.085 28.8553 100.804 29.1364C100.523 29.4112 100.189 29.6236 99.8014 29.7735C99.4203 29.9172 99.0049 29.989 98.5552 29.989H95.5006V29.3706ZM97.6744 29.3144H98.2835C98.5958 29.3144 98.8613 29.2831 99.0799 29.2207C99.3048 29.1582 99.4859 29.0614 99.6234 28.9302C99.767 28.7928 99.8701 28.6148 99.9326 28.3961C100.001 28.1713 100.036 27.8995 100.036 27.5809V25.8569C100.036 25.5383 100.001 25.2697 99.9326 25.0511C99.8701 24.8262 99.767 24.6482 99.6234 24.517C99.4859 24.3796 99.3048 24.2796 99.0799 24.2172C98.8613 24.1547 98.5958 24.1235 98.2835 24.1235H97.6744V29.3144ZM102.536 29.3706H103.098V26.0255L102.536 25.9037V25.3696L104.495 24.9667V25.8944H104.532C104.62 25.632 104.76 25.4134 104.954 25.2385C105.147 25.0573 105.4 24.9667 105.713 24.9667C106.019 24.9667 106.259 25.0511 106.434 25.2197C106.609 25.3821 106.697 25.607 106.697 25.8944C106.697 26.1442 106.631 26.341 106.5 26.4847C106.369 26.6283 106.184 26.7002 105.947 26.7002C105.722 26.7002 105.55 26.6408 105.432 26.5221C105.313 26.3972 105.254 26.2504 105.254 26.0818C105.254 26.0068 105.269 25.9381 105.3 25.8756C105.332 25.8132 105.369 25.7726 105.413 25.7538L105.403 25.707C105.385 25.7007 105.357 25.6976 105.319 25.6976C105.219 25.6976 105.122 25.7257 105.029 25.7819C104.935 25.8381 104.851 25.91 104.776 25.9974C104.701 26.0849 104.638 26.1817 104.588 26.2879C104.545 26.3941 104.523 26.4972 104.523 26.5971V29.3706H105.272V29.989H102.536V29.3706ZM108.638 30.1015C108.107 30.1015 107.719 29.9796 107.476 29.736C107.238 29.4862 107.12 29.1395 107.12 28.696C107.12 27.7277 107.835 27.2436 109.265 27.2436H109.921V26.7095C109.921 26.3285 109.849 26.0412 109.706 25.8475C109.562 25.6539 109.312 25.557 108.956 25.557C108.825 25.557 108.713 25.5664 108.619 25.5852C108.525 25.6039 108.444 25.6289 108.375 25.6601V25.707C108.438 25.7382 108.497 25.7944 108.553 25.8756C108.616 25.9568 108.647 26.0661 108.647 26.2036C108.647 26.391 108.588 26.5503 108.469 26.6814C108.35 26.8064 108.172 26.8688 107.935 26.8688C107.748 26.8688 107.591 26.8032 107.466 26.6721C107.341 26.5409 107.279 26.3754 107.279 26.1755C107.279 26.0255 107.323 25.8787 107.41 25.7351C107.498 25.5852 107.629 25.454 107.804 25.3415C107.979 25.2291 108.194 25.1385 108.45 25.0698C108.713 25.0011 109.012 24.9667 109.35 24.9667C110.031 24.9667 110.533 25.1135 110.858 25.4071C111.183 25.6945 111.346 26.1036 111.346 26.6346V29.3706H111.908V29.9047C111.802 29.9672 111.664 30.014 111.495 30.0452C111.327 30.0827 111.152 30.1015 110.971 30.1015C110.627 30.1015 110.384 30.0234 110.24 29.8672C110.102 29.7048 110.034 29.5049 110.034 29.2675V29.2488H109.978C109.934 29.355 109.878 29.4581 109.809 29.558C109.746 29.6579 109.662 29.7485 109.556 29.8297C109.456 29.9109 109.331 29.9765 109.181 30.0265C109.031 30.0765 108.85 30.1015 108.638 30.1015ZM109.172 29.2582C109.403 29.2582 109.584 29.2051 109.715 29.0989C109.853 28.9927 109.921 28.8084 109.921 28.546V27.8058H109.415C109.116 27.8058 108.891 27.8683 108.741 27.9932C108.597 28.1182 108.525 28.2962 108.525 28.5273V28.6772C108.525 28.8771 108.585 29.0239 108.703 29.1176C108.822 29.2113 108.978 29.2582 109.172 29.2582ZM112.51 29.3706H113.072V25.7351H112.51V25.0792H113.072V24.695C113.072 24.1141 113.253 23.6643 113.616 23.3457C113.978 23.0272 114.487 22.8679 115.143 22.8679C115.362 22.8679 115.549 22.896 115.705 22.9522C115.868 23.0022 116.002 23.0709 116.108 23.1584C116.214 23.2458 116.292 23.3457 116.342 23.4582C116.392 23.5706 116.417 23.6862 116.417 23.8049C116.417 24.0048 116.361 24.1672 116.249 24.2921C116.136 24.417 115.98 24.4795 115.78 24.4795C115.574 24.4795 115.418 24.4233 115.312 24.3109C115.206 24.1984 115.152 24.061 115.152 23.8986C115.152 23.7736 115.177 23.6768 115.227 23.6081C115.284 23.5394 115.34 23.4925 115.396 23.4676V23.4113C115.334 23.3988 115.259 23.3926 115.171 23.3926C114.934 23.3926 114.762 23.4738 114.656 23.6362C114.55 23.7986 114.497 24.0672 114.497 24.442V25.0792H115.434V25.7351H114.497V29.3706H115.246V29.989H112.51V29.3706ZM117.708 30.0827C117.333 30.0827 117.055 30.0015 116.874 29.8391C116.699 29.6704 116.612 29.4237 116.612 29.0989V25.7351H115.956V25.0792H116.209C116.415 25.0792 116.565 25.0355 116.659 24.948C116.759 24.8543 116.852 24.7169 116.94 24.5357L117.333 23.7205H118.036V25.0792H119.114V25.7351H118.036V29.3519H119.114V29.9047C119.014 29.9484 118.836 29.989 118.58 30.0265C118.324 30.064 118.033 30.0827 117.708 30.0827ZM119.517 29.3706H120.079V23.9267L119.517 23.8049V23.2708L121.503 22.8679V29.3706H122.066V29.989H119.517V29.3706ZM124.147 30.1015C123.616 30.1015 123.229 29.9796 122.986 29.736C122.748 29.4862 122.629 29.1395 122.629 28.696C122.629 27.7277 123.345 27.2436 124.775 27.2436H125.431V26.7095C125.431 26.3285 125.359 26.0412 125.216 25.8475C125.072 25.6539 124.822 25.557 124.466 25.557C124.335 25.557 124.222 25.5664 124.129 25.5852C124.035 25.6039 123.954 25.6289 123.885 25.6601V25.707C123.948 25.7382 124.007 25.7944 124.063 25.8756C124.126 25.9568 124.157 26.0661 124.157 26.2036C124.157 26.391 124.097 26.5503 123.979 26.6814C123.86 26.8064 123.682 26.8688 123.445 26.8688C123.257 26.8688 123.101 26.8032 122.976 26.6721C122.851 26.5409 122.789 26.3754 122.789 26.1755C122.789 26.0255 122.832 25.8787 122.92 25.7351C123.007 25.5852 123.139 25.454 123.313 25.3415C123.488 25.2291 123.704 25.1385 123.96 25.0698C124.222 25.0011 124.522 24.9667 124.86 24.9667C125.54 24.9667 126.043 25.1135 126.368 25.4071C126.693 25.6945 126.855 26.1036 126.855 26.6346V29.3706H127.417V29.9047C127.311 29.9672 127.174 30.014 127.005 30.0452C126.837 30.0827 126.662 30.1015 126.481 30.1015C126.137 30.1015 125.893 30.0234 125.75 29.8672C125.612 29.7048 125.544 29.5049 125.544 29.2675V29.2488H125.487C125.444 29.355 125.387 29.4581 125.319 29.558C125.256 29.6579 125.172 29.7485 125.066 29.8297C124.966 29.9109 124.841 29.9765 124.691 30.0265C124.541 30.0765 124.36 30.1015 124.147 30.1015ZM124.681 29.2582C124.913 29.2582 125.094 29.2051 125.225 29.0989C125.362 28.9927 125.431 28.8084 125.431 28.546V27.8058H124.925C124.625 27.8058 124.4 27.8683 124.25 27.9932C124.107 28.1182 124.035 28.2962 124.035 28.5273V28.6772C124.035 28.8771 124.094 29.0239 124.213 29.1176C124.332 29.2113 124.488 29.2582 124.681 29.2582ZM131.196 30.1015C130.834 30.1015 130.528 30.014 130.278 29.8391C130.034 29.6642 129.869 29.4612 129.781 29.2301H129.735L129.079 29.989H128.423V23.9267L127.861 23.8049V23.2708L129.847 22.8679V25.81H129.903C129.991 25.5914 130.144 25.3978 130.362 25.2291C130.581 25.0542 130.859 24.9667 131.196 24.9667C131.496 24.9667 131.765 25.0292 132.002 25.1541C132.246 25.2728 132.452 25.4446 132.621 25.6695C132.789 25.8944 132.917 26.1661 133.005 26.4847C133.098 26.797 133.145 27.1468 133.145 27.5341C133.145 27.9214 133.098 28.2743 133.005 28.5929C132.917 28.9052 132.789 29.1738 132.621 29.3987C132.452 29.6236 132.246 29.7985 132.002 29.9234C131.765 30.0421 131.496 30.1015 131.196 30.1015ZM130.718 29.2394C130.981 29.2394 131.199 29.1488 131.374 28.9677C131.549 28.7865 131.637 28.5211 131.637 28.1713V26.8876C131.637 26.5378 131.549 26.2723 131.374 26.0911C131.199 25.91 130.981 25.8194 130.718 25.8194C130.469 25.8194 130.259 25.8975 130.091 26.0537C129.928 26.2098 129.847 26.4191 129.847 26.6814V28.3774C129.847 28.6397 129.928 28.849 130.091 29.0052C130.259 29.1613 130.469 29.2394 130.718 29.2394Z" fill="black"/>
</svg>
