<?xml version="1.0" encoding="UTF-8" standalone="no"?>
<!DOCTYPE svg PUBLIC "-//W3C//DTD SVG 1.1//EN" "http://www.w3.org/Graphics/SVG/1.1/DTD/svg11.dtd">
<svg width="100%" height="100%" viewBox="0 0 134 32" version="1.1" xmlns="http://www.w3.org/2000/svg" xmlns:xlink="http://www.w3.org/1999/xlink" xml:space="preserve" xmlns:serif="http://www.serif.com/" style="fill-rule:evenodd;clip-rule:evenodd;stroke-linejoin:round;stroke-miterlimit:2;">
    <rect x="1.5" y="1.77" width="25.835" height="25.835" style="fill:rgb(248,242,107);fill-rule:nonzero;"/>
    <path d="M3,21.146L3,26.105L7.959,26.105L7.959,29.105L0,29.105L0,21.146L3,21.146ZM28.835,21.146L28.835,29.105L20.876,29.105L20.876,26.105L25.835,26.105L25.835,21.146L28.835,21.146ZM7.959,0.27L7.959,3.27L3,3.27L3,8.229L0,8.229L0,0.27L7.959,0.27ZM28.835,0.27L28.835,8.229L25.835,8.229L25.835,3.27L20.876,3.27L20.876,0.27L28.835,0.27Z" style="fill:white;fill-rule:nonzero;"/>
    <path d="M6.541,21.627L8.196,21.627L8.196,8.247L6.541,8.247L6.541,6.687L14.248,6.687C15.383,6.687 16.431,6.876 17.392,7.254C18.369,7.616 19.212,8.152 19.921,8.861C20.631,9.555 21.182,10.414 21.576,11.438C21.986,12.463 22.191,13.629 22.191,14.937C22.191,16.245 21.986,17.411 21.576,18.436C21.182,19.46 20.631,20.327 19.921,21.036C19.212,21.73 18.369,22.266 17.392,22.644C16.431,23.006 15.383,23.188 14.248,23.188L6.541,23.188L6.541,21.627ZM12.025,21.485L13.562,21.485C14.35,21.485 15.02,21.407 15.572,21.249C16.139,21.091 16.596,20.847 16.943,20.516C17.305,20.169 17.565,19.72 17.723,19.169C17.896,18.601 17.983,17.916 17.983,17.112L17.983,12.762C17.983,11.958 17.896,11.281 17.723,10.729C17.565,10.162 17.305,9.712 16.943,9.382C16.596,9.035 16.139,8.783 15.572,8.625C15.02,8.467 14.35,8.389 13.562,8.389L12.025,8.389L12.025,21.485Z" style="fill-rule:nonzero;"/>
    <path d="M44.535,21.298C43.51,21.298 42.675,21.124 42.03,20.777C41.402,20.43 40.972,20.016 40.74,19.537L40.616,19.537L40.616,21L38.359,21L38.359,15.915L40.616,15.915L40.616,17.031C40.616,17.891 40.897,18.561 41.459,19.04C42.038,19.52 42.956,19.76 44.213,19.76C45.536,19.76 46.495,19.487 47.09,18.941C47.686,18.395 47.983,17.668 47.983,16.758C47.983,15.948 47.76,15.328 47.314,14.898C46.867,14.451 46.115,14.096 45.056,13.831L43.791,13.534C42.981,13.352 42.253,13.112 41.608,12.814C40.963,12.517 40.417,12.153 39.971,11.723C39.525,11.293 39.177,10.788 38.929,10.21C38.698,9.631 38.582,8.953 38.582,8.175C38.582,7.464 38.714,6.819 38.979,6.241C39.243,5.645 39.616,5.141 40.095,4.728C40.591,4.298 41.187,3.967 41.881,3.735C42.576,3.504 43.361,3.388 44.238,3.388C45.23,3.388 46.024,3.553 46.619,3.884C47.214,4.215 47.628,4.603 47.859,5.05L47.983,5.05L47.983,3.686L50.241,3.686L50.241,8.622L47.983,8.622L47.983,7.506C47.983,6.662 47.694,6.026 47.115,5.596C46.553,5.149 45.66,4.926 44.436,4.926C43.295,4.926 42.443,5.182 41.881,5.695C41.335,6.191 41.063,6.828 41.063,7.605C41.063,8.432 41.311,9.068 41.807,9.515C42.319,9.961 43.154,10.325 44.312,10.606L45.478,10.855C47.082,11.235 48.322,11.839 49.199,12.665C50.075,13.476 50.513,14.592 50.513,16.014C50.513,16.775 50.373,17.478 50.092,18.123C49.827,18.767 49.439,19.33 48.926,19.809C48.43,20.272 47.81,20.636 47.065,20.901C46.321,21.165 45.478,21.298 44.535,21.298ZM59.083,21.298C58.107,21.298 57.239,21.132 56.478,20.802C55.734,20.471 55.106,20.008 54.593,19.412C54.081,18.817 53.692,18.106 53.427,17.279C53.163,16.452 53.03,15.543 53.03,14.551C53.03,13.492 53.188,12.55 53.502,11.723C53.816,10.879 54.254,10.168 54.816,9.589C55.379,9.011 56.04,8.572 56.801,8.275C57.578,7.96 58.422,7.803 59.331,7.803C60.753,7.803 61.861,8.101 62.655,8.696C63.465,9.292 63.871,10.052 63.871,10.979C63.871,11.557 63.713,12.012 63.399,12.343C63.085,12.657 62.663,12.814 62.134,12.814C61.588,12.814 61.175,12.665 60.894,12.368C60.613,12.053 60.472,11.665 60.472,11.202C60.472,10.821 60.571,10.491 60.77,10.21C60.968,9.928 61.225,9.722 61.539,9.589L61.539,9.465C61.34,9.383 61.092,9.308 60.795,9.242C60.497,9.159 60.125,9.118 59.678,9.118C59.133,9.118 58.637,9.217 58.19,9.416C57.743,9.614 57.363,9.895 57.049,10.259C56.735,10.606 56.487,11.028 56.305,11.524C56.139,12.02 56.057,12.574 56.057,13.186L56.057,15.344C56.057,16.585 56.363,17.569 56.975,18.296C57.586,19.007 58.422,19.363 59.48,19.363C60.472,19.363 61.241,19.148 61.787,18.718C62.349,18.288 62.779,17.759 63.077,17.13L64.143,17.775C63.995,18.205 63.78,18.627 63.498,19.04C63.217,19.454 62.87,19.834 62.457,20.181C62.043,20.512 61.555,20.785 60.993,21C60.431,21.198 59.794,21.298 59.083,21.298ZM69.811,21.298C68.521,21.298 67.546,20.984 66.884,20.355C66.239,19.71 65.917,18.834 65.917,17.726C65.917,16.469 66.363,15.518 67.256,14.873C68.149,14.228 69.604,13.906 71.622,13.906L73.408,13.906L73.408,12.219C73.408,11.21 73.185,10.441 72.738,9.912C72.292,9.383 71.589,9.118 70.63,9.118C69.819,9.118 69.207,9.234 68.794,9.465L68.794,9.565C68.976,9.647 69.141,9.796 69.29,10.011C69.456,10.21 69.538,10.491 69.538,10.855C69.538,11.318 69.398,11.69 69.117,11.971C68.852,12.252 68.463,12.392 67.951,12.392C67.521,12.392 67.157,12.252 66.859,11.971C66.578,11.673 66.438,11.276 66.438,10.78C66.438,10.4 66.545,10.036 66.76,9.689C66.992,9.325 67.322,9.002 67.752,8.721C68.182,8.44 68.703,8.217 69.315,8.051C69.943,7.886 70.663,7.803 71.473,7.803C73.028,7.803 74.202,8.167 74.995,8.895C75.789,9.622 76.186,10.64 76.186,11.946L76.186,19.685L77.873,19.685L77.873,20.802C77.641,20.934 77.344,21.05 76.98,21.149C76.616,21.248 76.227,21.298 75.814,21.298C75.053,21.298 74.491,21.108 74.127,20.727C73.78,20.33 73.606,19.826 73.606,19.214L73.606,19.09L73.482,19.09C73.367,19.371 73.218,19.644 73.036,19.909C72.854,20.157 72.614,20.388 72.316,20.603C72.035,20.818 71.688,20.984 71.275,21.099C70.861,21.232 70.373,21.298 69.811,21.298ZM70.903,19.561C71.63,19.561 72.226,19.388 72.689,19.04C73.168,18.693 73.408,18.123 73.408,17.329L73.408,15.121L71.92,15.121C70.745,15.121 69.927,15.311 69.464,15.692C69.001,16.072 68.769,16.618 68.769,17.329L68.769,17.8C68.769,18.395 68.959,18.842 69.34,19.14C69.72,19.421 70.241,19.561 70.903,19.561ZM79.58,19.661L81.266,19.661L81.266,9.54L79.58,9.54L79.58,8.101L81.266,8.101L81.266,6.538C81.266,5.877 81.374,5.273 81.589,4.728C81.804,4.182 82.11,3.719 82.507,3.338C82.92,2.958 83.408,2.669 83.97,2.47C84.549,2.255 85.194,2.148 85.905,2.148C86.897,2.148 87.658,2.354 88.187,2.768C88.733,3.181 89.006,3.71 89.006,4.355C89.006,4.835 88.865,5.215 88.584,5.496C88.32,5.778 87.972,5.918 87.542,5.918C87.096,5.918 86.749,5.794 86.5,5.546C86.252,5.281 86.128,4.959 86.128,4.579C86.128,4.281 86.195,4.041 86.327,3.859C86.459,3.661 86.616,3.52 86.798,3.438L86.798,3.363C86.6,3.314 86.343,3.289 86.029,3.289C84.706,3.289 84.045,4.223 84.045,6.092L84.045,8.101L86.724,8.101L86.724,9.54L84.045,9.54L84.045,19.661L86.228,19.661L86.228,21L79.58,21L79.58,19.661ZM88.518,19.661L90.205,19.661L90.205,9.54L88.518,9.54L88.518,8.101L90.205,8.101L90.205,6.538C90.205,5.877 90.313,5.273 90.528,4.728C90.743,4.182 91.049,3.719 91.445,3.338C91.859,2.958 92.347,2.669 92.909,2.47C93.488,2.255 94.133,2.148 94.844,2.148C95.836,2.148 96.597,2.354 97.126,2.768C97.672,3.181 97.945,3.71 97.945,4.355C97.945,4.835 97.804,5.215 97.523,5.496C97.258,5.778 96.911,5.918 96.481,5.918C96.034,5.918 95.687,5.794 95.439,5.546C95.191,5.281 95.067,4.959 95.067,4.579C95.067,4.281 95.133,4.041 95.266,3.859C95.398,3.661 95.555,3.52 95.737,3.438L95.737,3.363C95.538,3.314 95.282,3.289 94.968,3.289C93.645,3.289 92.983,4.223 92.983,6.092L92.983,8.101L95.662,8.101L95.662,9.54L92.983,9.54L92.983,19.661L95.166,19.661L95.166,21L88.518,21L88.518,19.661ZM103.171,19.834C104.213,19.834 104.974,19.512 105.453,18.867C105.949,18.222 106.197,17.362 106.197,16.287L106.197,12.814C106.197,11.739 105.949,10.879 105.453,10.234C104.974,9.589 104.213,9.267 103.171,9.267C102.129,9.267 101.36,9.589 100.864,10.234C100.385,10.879 100.145,11.739 100.145,12.814L100.145,16.287C100.145,17.362 100.385,18.222 100.864,18.867C101.36,19.512 102.129,19.834 103.171,19.834ZM103.171,21.298C102.262,21.298 101.435,21.141 100.691,20.826C99.946,20.512 99.31,20.066 98.781,19.487C98.251,18.908 97.838,18.205 97.54,17.378C97.259,16.535 97.119,15.592 97.119,14.551C97.119,13.509 97.259,12.574 97.54,11.748C97.838,10.904 98.251,10.193 98.781,9.614C99.31,9.035 99.946,8.589 100.691,8.275C101.435,7.96 102.262,7.803 103.171,7.803C104.081,7.803 104.908,7.96 105.652,8.275C106.396,8.589 107.033,9.035 107.562,9.614C108.091,10.193 108.496,10.904 108.777,11.748C109.075,12.574 109.224,13.509 109.224,14.551C109.224,15.592 109.075,16.535 108.777,17.378C108.496,18.205 108.091,18.908 107.562,19.487C107.033,20.066 106.396,20.512 105.652,20.826C104.908,21.141 104.081,21.298 103.171,21.298ZM111.041,19.661L112.728,19.661L112.728,4.43L111.041,4.107L111.041,3.016L115.506,2.148L115.506,19.661L117.193,19.661L117.193,21L111.041,21L111.041,19.661ZM124.326,21.298C123.533,21.298 122.813,21.149 122.168,20.851C121.523,20.537 120.978,20.091 120.531,19.512C120.085,18.933 119.737,18.23 119.489,17.403C119.241,16.56 119.117,15.609 119.117,14.551C119.117,13.492 119.241,12.55 119.489,11.723C119.737,10.879 120.085,10.168 120.531,9.589C120.978,9.011 121.523,8.572 122.168,8.275C122.813,7.96 123.533,7.803 124.326,7.803C125.302,7.803 126.079,8.027 126.658,8.473C127.253,8.92 127.683,9.441 127.948,10.036L128.072,10.036L128.072,4.43L126.385,4.107L126.385,3.016L130.85,2.148L130.85,19.016L132.537,19.338L132.537,20.43L128.072,21.298L128.072,19.065L127.948,19.065C127.683,19.661 127.253,20.181 126.658,20.628C126.063,21.074 125.285,21.298 124.326,21.298ZM125.194,19.512C125.558,19.512 125.914,19.462 126.261,19.363C126.608,19.247 126.914,19.082 127.179,18.867C127.46,18.652 127.675,18.395 127.824,18.098C127.989,17.8 128.072,17.461 128.072,17.081L128.072,12.02C128.072,11.64 127.989,11.301 127.824,11.003C127.675,10.706 127.46,10.449 127.179,10.234C126.914,10.019 126.608,9.862 126.261,9.763C125.914,9.647 125.558,9.589 125.194,9.589C124.252,9.589 123.499,9.912 122.937,10.557C122.375,11.202 122.094,12.095 122.094,13.236L122.094,15.865C122.094,17.006 122.375,17.899 122.937,18.544C123.499,19.189 124.252,19.512 125.194,19.512Z" style="fill:white;fill-rule:nonzero;"/>
    <path d="M85.353,30.102C84.991,30.102 84.685,30.014 84.435,29.839C84.191,29.664 84.026,29.461 83.938,29.23L83.892,29.23L83.236,29.989L82.58,29.989L82.58,23.927L82.018,23.805L82.018,23.271L84.004,22.868L84.004,25.81L84.06,25.81C84.148,25.591 84.301,25.398 84.519,25.229C84.738,25.054 85.016,24.967 85.353,24.967C85.653,24.967 85.922,25.029 86.159,25.154C86.403,25.273 86.609,25.445 86.778,25.67C86.946,25.894 87.074,26.166 87.162,26.485C87.255,26.797 87.302,27.147 87.302,27.534C87.302,27.921 87.255,28.274 87.162,28.593C87.074,28.905 86.946,29.174 86.778,29.399C86.609,29.624 86.403,29.799 86.159,29.923C85.922,30.042 85.653,30.102 85.353,30.102ZM84.875,29.239C85.138,29.239 85.356,29.149 85.531,28.968C85.706,28.787 85.794,28.521 85.794,28.171L85.794,26.888C85.794,26.538 85.706,26.272 85.531,26.091C85.356,25.91 85.138,25.819 84.875,25.819C84.626,25.819 84.416,25.898 84.248,26.054C84.085,26.21 84.004,26.419 84.004,26.681L84.004,28.377C84.004,28.64 84.085,28.849 84.248,29.005C84.416,29.161 84.626,29.239 84.875,29.239ZM88.757,31.975C88.382,31.975 88.092,31.882 87.886,31.694C87.679,31.513 87.576,31.295 87.576,31.038C87.576,30.814 87.639,30.639 87.764,30.514C87.895,30.389 88.073,30.326 88.298,30.326C88.516,30.326 88.685,30.395 88.804,30.533C88.923,30.67 88.982,30.829 88.982,31.01C88.982,31.092 88.969,31.167 88.944,31.235C88.919,31.31 88.891,31.369 88.86,31.413L88.879,31.47C88.904,31.476 88.938,31.479 88.982,31.479C89.144,31.479 89.294,31.391 89.432,31.217C89.569,31.042 89.7,30.792 89.825,30.467L89.919,30.223L88.139,25.698L87.689,25.698L87.689,25.079L90.153,25.079L90.153,25.698L89.628,25.698L90.612,28.537L90.668,28.537L91.662,25.698L91.137,25.698L91.137,25.079L92.861,25.079L92.861,25.698L92.421,25.698L90.453,30.495C90.384,30.664 90.303,30.835 90.209,31.01C90.116,31.192 90.003,31.351 89.872,31.488C89.741,31.632 89.585,31.747 89.403,31.835C89.222,31.929 89.007,31.975 88.757,31.975ZM95.501,29.371L96.156,29.371L96.156,24.067L95.501,24.067L95.501,23.449L98.555,23.449C99.005,23.449 99.42,23.524 99.801,23.674C100.189,23.817 100.523,24.03 100.804,24.311C101.085,24.586 101.304,24.926 101.46,25.332C101.622,25.738 101.703,26.2 101.703,26.719C101.703,27.237 101.622,27.7 101.46,28.106C101.304,28.512 101.085,28.855 100.804,29.136C100.523,29.411 100.189,29.624 99.801,29.773C99.42,29.917 99.005,29.989 98.555,29.989L95.501,29.989L95.501,29.371ZM97.674,29.314L98.284,29.314C98.596,29.314 98.861,29.283 99.08,29.221C99.305,29.158 99.486,29.061 99.623,28.93C99.767,28.793 99.87,28.615 99.933,28.396C100.001,28.171 100.036,27.9 100.036,27.581L100.036,25.857C100.036,25.538 100.001,25.27 99.933,25.051C99.87,24.826 99.767,24.648 99.623,24.517C99.486,24.38 99.305,24.28 99.08,24.217C98.861,24.155 98.596,24.124 98.284,24.124L97.674,24.124L97.674,29.314ZM102.536,29.371L103.098,29.371L103.098,26.026L102.536,25.904L102.536,25.37L104.495,24.967L104.495,25.894L104.532,25.894C104.62,25.632 104.76,25.413 104.954,25.238C105.147,25.057 105.4,24.967 105.713,24.967C106.019,24.967 106.259,25.051 106.434,25.22C106.609,25.382 106.697,25.607 106.697,25.894C106.697,26.144 106.631,26.341 106.5,26.485C106.369,26.628 106.184,26.7 105.947,26.7C105.722,26.7 105.55,26.641 105.432,26.522C105.313,26.397 105.254,26.25 105.254,26.082C105.254,26.007 105.269,25.938 105.3,25.876C105.332,25.813 105.369,25.773 105.413,25.754L105.403,25.707C105.385,25.701 105.357,25.698 105.319,25.698C105.219,25.698 105.122,25.726 105.029,25.782C104.935,25.838 104.851,25.91 104.776,25.997C104.701,26.085 104.638,26.182 104.588,26.288C104.545,26.394 104.523,26.497 104.523,26.597L104.523,29.371L105.272,29.371L105.272,29.989L102.536,29.989L102.536,29.371ZM108.638,30.102C108.107,30.102 107.719,29.98 107.476,29.736C107.238,29.486 107.12,29.14 107.12,28.696C107.12,27.728 107.835,27.244 109.265,27.244L109.921,27.244L109.921,26.709C109.921,26.328 109.849,26.041 109.706,25.848C109.562,25.654 109.312,25.557 108.956,25.557C108.825,25.557 108.713,25.566 108.619,25.585C108.525,25.604 108.444,25.629 108.375,25.66L108.375,25.707C108.438,25.738 108.497,25.794 108.553,25.876C108.616,25.957 108.647,26.066 108.647,26.204C108.647,26.391 108.588,26.55 108.469,26.681C108.35,26.806 108.172,26.869 107.935,26.869C107.748,26.869 107.591,26.803 107.466,26.672C107.341,26.541 107.279,26.375 107.279,26.176C107.279,26.026 107.323,25.879 107.41,25.735C107.498,25.585 107.629,25.454 107.804,25.342C107.979,25.229 108.194,25.139 108.45,25.07C108.713,25.001 109.012,24.967 109.35,24.967C110.031,24.967 110.533,25.113 110.858,25.407C111.183,25.695 111.346,26.104 111.346,26.635L111.346,29.371L111.908,29.371L111.908,29.905C111.802,29.967 111.664,30.014 111.495,30.045C111.327,30.083 111.152,30.102 110.971,30.102C110.627,30.102 110.384,30.023 110.24,29.867C110.102,29.705 110.034,29.505 110.034,29.267L110.034,29.249L109.978,29.249C109.934,29.355 109.878,29.458 109.809,29.558C109.746,29.658 109.662,29.749 109.556,29.83C109.456,29.911 109.331,29.977 109.181,30.026C109.031,30.077 108.85,30.102 108.638,30.102ZM109.172,29.258C109.403,29.258 109.584,29.205 109.715,29.099C109.853,28.993 109.921,28.808 109.921,28.546L109.921,27.806L109.415,27.806C109.116,27.806 108.891,27.868 108.741,27.993C108.597,28.118 108.525,28.296 108.525,28.527L108.525,28.677C108.525,28.877 108.585,29.024 108.703,29.118C108.822,29.211 108.978,29.258 109.172,29.258ZM112.51,29.371L113.072,29.371L113.072,25.735L112.51,25.735L112.51,25.079L113.072,25.079L113.072,24.695C113.072,24.114 113.253,23.664 113.616,23.346C113.978,23.027 114.487,22.868 115.143,22.868C115.362,22.868 115.549,22.896 115.705,22.952C115.868,23.002 116.002,23.071 116.108,23.158C116.214,23.246 116.292,23.346 116.342,23.458C116.392,23.571 116.417,23.686 116.417,23.805C116.417,24.005 116.361,24.167 116.249,24.292C116.136,24.417 115.98,24.48 115.78,24.48C115.574,24.48 115.418,24.423 115.312,24.311C115.206,24.198 115.152,24.061 115.152,23.899C115.152,23.774 115.177,23.677 115.227,23.608C115.284,23.539 115.34,23.493 115.396,23.468L115.396,23.411C115.334,23.399 115.259,23.393 115.171,23.393C114.934,23.393 114.762,23.474 114.656,23.636C114.55,23.799 114.497,24.067 114.497,24.442L114.497,25.079L115.434,25.079L115.434,25.735L114.497,25.735L114.497,29.371L115.246,29.371L115.246,29.989L112.51,29.989L112.51,29.371ZM117.708,30.083C117.333,30.083 117.055,30.002 116.874,29.839C116.699,29.67 116.612,29.424 116.612,29.099L116.612,25.735L115.956,25.735L115.956,25.079L116.209,25.079C116.415,25.079 116.565,25.036 116.659,24.948C116.759,24.854 116.852,24.717 116.94,24.536L117.333,23.721L118.036,23.721L118.036,25.079L119.114,25.079L119.114,25.735L118.036,25.735L118.036,29.352L119.114,29.352L119.114,29.905C119.014,29.948 118.836,29.989 118.58,30.026C118.324,30.064 118.033,30.083 117.708,30.083ZM119.517,29.371L120.079,29.371L120.079,23.927L119.517,23.805L119.517,23.271L121.503,22.868L121.503,29.371L122.066,29.371L122.066,29.989L119.517,29.989L119.517,29.371ZM124.147,30.102C123.616,30.102 123.229,29.98 122.986,29.736C122.748,29.486 122.629,29.14 122.629,28.696C122.629,27.728 123.345,27.244 124.775,27.244L125.431,27.244L125.431,26.709C125.431,26.328 125.359,26.041 125.216,25.848C125.072,25.654 124.822,25.557 124.466,25.557C124.335,25.557 124.222,25.566 124.129,25.585C124.035,25.604 123.954,25.629 123.885,25.66L123.885,25.707C123.948,25.738 124.007,25.794 124.063,25.876C124.126,25.957 124.157,26.066 124.157,26.204C124.157,26.391 124.097,26.55 123.979,26.681C123.86,26.806 123.682,26.869 123.445,26.869C123.257,26.869 123.101,26.803 122.976,26.672C122.851,26.541 122.789,26.375 122.789,26.176C122.789,26.026 122.832,25.879 122.92,25.735C123.007,25.585 123.139,25.454 123.313,25.342C123.488,25.229 123.704,25.139 123.96,25.07C124.222,25.001 124.522,24.967 124.86,24.967C125.54,24.967 126.043,25.113 126.368,25.407C126.693,25.695 126.855,26.104 126.855,26.635L126.855,29.371L127.417,29.371L127.417,29.905C127.311,29.967 127.174,30.014 127.005,30.045C126.837,30.083 126.662,30.102 126.481,30.102C126.137,30.102 125.893,30.023 125.75,29.867C125.612,29.705 125.544,29.505 125.544,29.267L125.544,29.249L125.487,29.249C125.444,29.355 125.387,29.458 125.319,29.558C125.256,29.658 125.172,29.749 125.066,29.83C124.966,29.911 124.841,29.977 124.691,30.026C124.541,30.077 124.36,30.102 124.147,30.102ZM124.681,29.258C124.913,29.258 125.094,29.205 125.225,29.099C125.362,28.993 125.431,28.808 125.431,28.546L125.431,27.806L124.925,27.806C124.625,27.806 124.4,27.868 124.25,27.993C124.107,28.118 124.035,28.296 124.035,28.527L124.035,28.677C124.035,28.877 124.094,29.024 124.213,29.118C124.332,29.211 124.488,29.258 124.681,29.258ZM131.196,30.102C130.834,30.102 130.528,30.014 130.278,29.839C130.034,29.664 129.869,29.461 129.781,29.23L129.735,29.23L129.079,29.989L128.423,29.989L128.423,23.927L127.861,23.805L127.861,23.271L129.847,22.868L129.847,25.81L129.903,25.81C129.991,25.591 130.144,25.398 130.362,25.229C130.581,25.054 130.859,24.967 131.196,24.967C131.496,24.967 131.765,25.029 132.002,25.154C132.246,25.273 132.452,25.445 132.621,25.67C132.789,25.894 132.917,26.166 133.005,26.485C133.098,26.797 133.145,27.147 133.145,27.534C133.145,27.921 133.098,28.274 133.005,28.593C132.917,28.905 132.789,29.174 132.621,29.399C132.452,29.624 132.246,29.799 132.002,29.923C131.765,30.042 131.496,30.102 131.196,30.102ZM130.718,29.239C130.981,29.239 131.199,29.149 131.374,28.968C131.549,28.787 131.637,28.521 131.637,28.171L131.637,26.888C131.637,26.538 131.549,26.272 131.374,26.091C131.199,25.91 130.981,25.819 130.718,25.819C130.469,25.819 130.259,25.898 130.091,26.054C129.928,26.21 129.847,26.419 129.847,26.681L129.847,28.377C129.847,28.64 129.928,28.849 130.091,29.005C130.259,29.161 130.469,29.239 130.718,29.239Z" style="fill:white;fill-rule:nonzero;"/>
</svg>
